<svg version="1.2" xmlns="http://www.w3.org/2000/svg" viewBox="0 0 635 635" width="635" height="635">
	<title>caixadirecta-icon-splash-svg</title>
	<defs>
		<linearGradient id="g1" x1="4881.4" y1="26955" x2="7661.9" y2="651.3" gradientUnits="userSpaceOnUse">
			<stop offset="0" stop-color="#1e823a"/>
			<stop offset=".4" stop-color="#3fb649"/>
			<stop offset="1" stop-color="#6abf43"/>
		</linearGradient>
		<linearGradient id="g2" x1="10750.6" y1="874.1" x2="7142.8" y2="25987.9" gradientUnits="userSpaceOnUse">
			<stop offset="0" stop-color="#f04839"/>
			<stop offset=".5" stop-color="#e71b22"/>
			<stop offset="1" stop-color="#a80a0d"/>
		</linearGradient>
	</defs>
	<style>
		.s0 { fill: none } 
		.s1 { fill: #ffffff } 
		.s2 { fill: url(#g1) } 
		.s3 { fill: url(#g2) } 
	</style>
	<g id="Artboard">
		<path id="Oval" class="s0" d="m324 680c-210.1 0-380-169.9-380-380 0-210.1 169.9-380 380-380 210.1 0 380 169.9 380 380 0 210.1-169.9 380-380 380z"/>
		<g id="Caixa-Logo/Negative-Copy">
			<path id="Fill-1784" fill-rule="evenodd" class="s1" d="m166.7 473.6l-53.7-92.4c-6.7-11.6-6.7-19.3 0-30.9l48.2-83 24.1 41.4c6.7 11.6 6.7 19.3 0 30.8l-8.3 14.2c-4.5 7.8-4.5 15.4 0 23.1l25.2 43.4c4.4 7.7 11.2 11.6 20.1 11.6h49.7c9 0 15.7-3.9 20.2-11.6l39.1-67.2c6.9-12 13.4-15.4 27.9-15.5h47.5l-79 136.1c-6.7 11.5-13.4 15.4-26.9 15.4h-107.3c-13.4 0-20.1-3.8-26.8-15.4zm102.6-361.6h107.3c13.4 0 20.2 3.9 26.9 15.4l48.2 83.1h-48.1c-13.5 0-20.1-3.9-26.8-15.4l-8.3-14.3c-4.5-7.7-11.1-11.6-20.1-11.6h-50.3q-13.5 0-20.2 11.6l-24.9 42.8c-4.4 7.7-4.4 15.5 0 23.2l39.1 67.3c6.9 11.9 6.7 19.2-0.6 31.7l-23.7 40.9-79-136.1c-6.7-11.5-6.7-19.2 0-30.8l53.6-92.4c6.8-11.5 13.4-15.4 26.9-15.4zm263.7 269.1l-53.7 92.5c-6.7 11.5-13.4 15.4-26.8 15.4h-96.5l24.1-41.4c6.7-11.6 13.4-15.4 26.8-15.4h16.5c9 0 15.7-3.8 20.2-11.5l25.1-43.4c4.5-7.7 4.5-15.4 0-23.1l-24.8-42.8c-4.5-7.7-11.3-11.6-20.2-11.6l-78.1-0.1c-13.8 0-20.1-3.8-27.4-16.3l-23.7-40.9h158c13.4 0 20.1 3.9 26.8 15.4l53.7 92.4c6.7 11.6 6.7 19.3 0 30.8z"/>
			<g id="G">
				<path id="Fill-4625" fill-rule="evenodd" class="s2" d="m126.1 59c0.1 0.1 0.3 0 0.3 0.2q0.1 0.2-0.1 0.5c0 0.5-0.5 0.9-0.9 1.3q-0.4 1-0.7 2.1c0.3 0.2 0.6-0.3 0.8-0.3 0.1-0.1 0.3-0.1 0.4-0.1 0.4-0.2 0.7-0.5 1.2-0.4-0.2 0.2 0 0.4-0.2 0.7 0 0.1-0.1 0.1-0.2 0.1-0.1 0.2-0.1 0.2-0.2 0.2-0.2 0.1-0.4 0.1-0.5 0.1-0.1 0-0.3 0.2-0.4 0.2-0.2 0.3-0.6 0-0.8 0.4 0.3 0.1 0.3 0.2 0.1 0.4-0.2 0.3-0.6 0.3-0.8 0.6 0.3 0.3 0.1 0.8 0.2 1.2 0.1 0.2-0.1 0.6-0.5 0.7-0.5 0.3-0.2-0.2-0.3-0.3-0.1-0.1-0.2-0.2-0.3-0.2-0.9 0.7-0.6 1.4-1 2.1-0.1 0.1-0.1 0.3-0.2 0.4 0.3 0.1 0.4 0.4 0.9 0.1 0.2-0.2 0.4-0.2 0.6-0.3-0.1 0.2-0.3 0.5 0.2 0.4-0.2 0.1-0.3 0.1-0.5 0.1q-0.1 0-0.2 0c-0.4 0.2-0.8 0.3-1.2 0.3-0.1 0.2-0.2 0.3-0.4 0.3-0.4 0.3-0.4 0.6-0.6 0.9 0.1 0.1 0.1 0.2 0.1 0.4 0.1 0.1 0 0.3-0.2 0.5q-0.1 0.1-0.3 0.2c0 0.1-0.2 0.3-0.1 0.4-0.2 0.3-0.4 0.5-0.5 0.7-0.1 0.2-0.2 0.3 0 0.4q0 0.1 0.1 0.1c0.1 0 0.2 0 0.3-0.1q0 0.1 0.2 0c0.1-0.2 0.3-0.4 0.2-0.6 0.1-0.2 0.1-0.3 0.1-0.4 0.1-0.2 0.1-0.3 0.1-0.5q0.4-0.5 0.7-1c0.1-0.2 0.3-0.4 0.4-0.5-0.1-0.1-0.1-0.2 0.1-0.2 0.1 0.2-0.2 0.4-0.3 0.7 0 0.1 0.1 0.3 0.1 0.4-0.4 0.5-0.5 1-0.7 1.5-0.2 0.4 0.1 0.4 0.3 0.4q0.1 0 0.2 0c0.3-0.4 0.5-0.7 0.4-1.1 0-0.2 0.1-0.4 0.4-0.7 0.2-0.3 0.1-0.8 0.8-0.7 0.3-0.5 0.6-1 0.5-1.5 0.2-0.2 0-0.5 0.3-0.8 0.8-0.2 1.3-0.8 1.5-1.4 0.2-0.2 0.2-0.5 0.4-0.7 0.2-0.3-0.2-0.4 0.1-0.7 0.2-0.3 0-0.3-0.1-0.4-0.3 0.1-0.5 0.1-0.4-0.2 0.2-0.2 0.4-0.5 0.6-0.4 0.3 0-0.1 0.3-0.1 0.5 0.2 0 0.4 0.1 0.6 0.2 0.1 0 0.3-0.2 0.4 0 0 0.2 0.1 0.3 0.5 0.2 0.5-0.1 0.5 0.1 0.2 0.4-0.3 0.4-0.6 0.6-0.8 1 0.1 0.1 0.2 0.1 0.4 0.1 0.1-0.2 0.2-0.3 0.3-0.3 0.1 0.1 0.2 0.2 0.1 0.3 0.2 0.5 0.1 0.9-0.5 1.2-0.2 0.2-0.3 0-0.2-0.2-0.1-0.2-0.1-0.4-0.2-0.6q-0.1 0.1-0.2 0c-0.7 0.4-1.1 1-1.5 1.6 0.1 0.2 0 0.4-0.1 0.7 0.1 0.2 0.6 0.2 0 0.7-0.8 0.7-1 1.5-1.2 2.2-0.3 0.8-0.5 1.6-0.8 2.4q-0.1 0.2-0.3 0.2l0.1-0.2c-0.2 0-0.3 0-0.4 0-0.2-0.1-0.4-0.1-0.6 0-0.5 0.3-0.8 0.7-0.9 1.1 0 0.3 0.4-0.1 0.6-0.1 0.1 0.1 0.1 0.1 0.1 0.1 0.4 0.3-0.2 0.9 0 1.2 0 0.1-0.2 0.3-0.4 0.3-0.5-0.1-0.5 0.2-0.5 0.5 0 0.3-0.2 0.8 0 1 0.1 0 0.2 0 0.3 0q0.2-0.2 0.3-0.5c0.1-0.1 0.2-0.3 0.3-0.2 0.1 0 0.1 0.1 0.2 0.2-0.2 0.2-0.4 0.4-0.6 0.6q0 0 0 0.2c0.1 0 0.1 0 0.1 0.1 0 0.1 0 0.2 0.2 0.1q0.5-0.7 1-1.4c0.5 0 0.9 0 1.2-0.7 0.1-0.1 0.3-0.3 0.5-0.3 0.2 0 0.3 0.2 0.2 0.4-0.3 0.5-0.3 0.9 0.2 1.1 0.2 0-0.3 0.5-0.2 0.8 0.5-0.1 0.5-0.5 0.8-0.7q0.1-0.2 0.3-0.5 0 0 0-0.2c0.1-0.1 0.2-0.3 0.4-0.3 0.2 0.1 0.1 0.2 0 0.4l-0.1 0.1q-0.1 0.3-0.2 0.5c0.2 0.1-0.3 0.5-0.1 0.7q0.3-0.4 0.6-0.8 0.1-0.2 0.2-0.3c-0.1-0.2 0-0.4 0.1-0.6 0.2-0.4 0.7-0.8 0.7-1.2 0-0.1 0.2-0.2 0.3-0.3 0.5-0.1 0.5-0.4 0.7-0.6 0-0.4 0.3-0.8 0.5-1.1l0.1-0.5c0.2-0.2 0.5-0.6 0-0.6-0.5 0-0.4-0.3-0.3-0.7q0.1-0.1 0.2-0.3c0.4-0.4 0.7-0.9 1.3-1.2 0.5-0.4 0.3-1 0.9-1.4 0.3-0.2 0.5-0.7 0.9-0.5 0.2 0.1 0.2-0.2 0.3-0.2 0.3-0.2 0.5-0.8 0.9-0.6 0.1 0 0.3-0.1 0.3-0.3 0.1-0.3 0.5-0.6 0.5-1.1 0.1-0.2 0.1-0.4 0.3-0.6q0.4-0.7 0.8-1.5c0.5-0.8 0.9-1.5 1.7-2.2 0 0 0.1-0.2 0.2-0.3-0.1 0-0.1-0.1 0-0.2 0.2 0 0.3 0 0.3 0.2 0 0.1 0 0.2-0.1 0.3 0 0.2 0.1 0.3-0.1 0.5-0.3 0.4-0.4 0.2-0.4 0q-0.6 0.3-0.6 0.8c0.1-0.1 0.2-0.1 0.3-0.1q0.1-0.1 0.2-0.1c0.2 0.1 0.2 0.2-0.2 0.4q-0.2 0.1-0.4 0.2c0 0.1-0.1 0.1-0.2 0.2 0 0.1-0.1 0.1-0.2 0.1-0.4 0.5-0.4 1-0.8 1.5 0 0.4-0.2 0.7-0.4 1.1q-0.5 1.4-0.8 2.7c-0.1 0.6-0.5 1.3-0.4 2 0.1 0.1 0.1 0.2 0.2 0.3 0.2-0.2 0.7-0.3 0.9-0.4-0.1 0-0.1 0.1-0.1 0.1-0.1 0.1-0.2 0.1-0.2 0.2q-0.1 0.1-0.1 0.1 0 0.1 0.1 0.2c-0.1 0-0.1 0.1-0.2 0.2 0.1 0.1 0.1 0.1 0.1 0.2q0 0-0.2 0.3h0.2q0 0.1 0.1 0.1c0 0.1 0 0.1 0 0.2 0 0 0.1 0 0.1 0q-0.1 0.1-0.1 0.2h-0.2c-0.1 0.1-0.1 0.1-0.2 0.2q-0.1-0.1-0.2 0c0 0 0 0.1 0 0.1q-0.1 0.2-0.1 0.3c-0.1 0.2-0.3 0.5-0.3 0.8q-0.1 0.2 0 0.2 0 0.1 0 0.3c-0.1 0.1-0.1 0.2 0.1 0.2-0.1 0.4-0.5 1.3-0.7 1-1.1 1.1-1.2 1.2-1.3 2.3 0 0.1 0 0.2-0.1 0.4-0.6 0.7-0.8 1.4-1.1 2.2q-0.1 0.4-0.3 0.7c-0.1 0.3-0.6 0.7-0.4 0.9 0.1 0.2 0.2 0.4 0.6 0.2 0.4-0.1 0.2 0.1 0.1 0.3 0.3 0.5 0.2 1-0.4 1.5q-0.1 0.2-0.1 0.3c0 0.5-0.3 1-0.6 1.4 0 0.3-0.4 0.7-0.6 1 0 0.1 0 0.2-0.1 0.2 0 0.5-0.3 1-0.6 1.5-0.4-0.2-0.1-0.5 0-0.7-0.1-0.4-0.6 0.1-0.8 0.1-0.3 0.2-0.5 0.4-0.6 0.6-0.2 0.6-0.3 1.1-0.8 1.6-0.1 1.2-1.1 2.3-1.7 3.5-0.5 1.2-1 2.3-1.5 3.5-0.2 0.7-0.7 1.3-0.9 2q0.2 0 0.4 0c0.7-0.7 1-1.4 1.4-2.2 0.4-1 0.8-2 1.9-2.9 0.2-0.3 0.4-0.6 0.8-0.8q0.3-0.4 0.5-0.7c0.2-0.3 0-0.5 0.4-0.8 0.2 0.2 0 0.5-0.2 0.8 0 0 0 0.1-0.1 0.1q0.1 0.2-0.1 0.5c0.2 0.1 0.3-0.2 0.5-0.2q0.5-0.6 0.9-1.3c-0.6-0.3 0.2-0.7 0.3-1-0.1-0.1-0.1-0.2-0.2-0.3-0.5 0-0.2-0.3 0-0.7-0.1-0.1 0-0.4 0.3-0.6 0 0 0.1-0.1 0.1-0.1 0.4-0.4 0.4-0.9 0.8-1.3 0.3-0.6 0.5-1.3 0.9-1.9 0-0.2 0.1-0.3 0.2-0.5q0 0.1 0.1 0.1c0-0.1 0.1-0.1 0.2-0.2 0.1-0.2 0.2-0.3 0.3-0.3q0 0.1 0 0.1 0 0.1 0.1 0.2-0.1 0-0.1 0.1c0 0-0.1 0.1-0.2 0.2q-0.1 0.1-0.2 0.3c0 0.4-0.4 0.8-0.6 1.2-0.1 0.2 0 0.3 0.2 0.3 0.5-0.1 1.1-0.1 1.6-0.2 0.3-0.1 0.8-0.2 0.7-0.7-0.2-0.1 0-0.3 0.2-0.5 0.2-0.5 0.6-0.3 1-0.5-0.1-0.1-0.1-0.1-0.1-0.3 0-0.1 0-0.2 0-0.3 0.2-0.1 0.4-0.1 0.6-0.2v-0.1c0.1 0.1 0.1 0.3 0 0.5q0 0.1 0 0.3c0.1 0.1 0.1 0.2 0 0.3 0-0.2 0-0.3 0-0.3 0-0.1 0-0.2-0.2-0.2-0.1 0.1-0.2 0.3-0.2 0.4-0.1 0.1-0.2 0.2-0.3 0.3q0 0.4-0.3 0.6c-0.2 0.3-0.1 0.3 0.1 0.3q0.1 0 0.1-0.1 0.2 0 0.2 0.1c0 0-0.1 0.1-0.2 0.2 0.1 0.1 0.3 0.1 0 0.3-0.2 0.2-0.3 0.5-0.5 0.7-0.3 0.4-0.3 0.1-0.4-0.1-0.2 0.1-0.4 0.2-0.5 0.4-0.1 0.7-0.6 0.6-1 0.7-0.6 1-1.1 1.9-1.4 3 0.1 0.1 0.3-0.1 0.4-0.2 0.3-0.3 0-0.7 0.8-1.1-0.2 0.5-0.4 0.8-0.6 1.2q0 0.2 0 0.4c-0.1 0.2-0.2 0.5-0.5 0.6-0.3 0 0-0.4-0.2-0.5-0.4 0.4-0.5 0.8-0.8 1.1 0.1 0.2 0 0.3-0.1 0.5-0.4 0.4-0.5 0.7-0.5 1 0 0.6-0.2 1.2-0.6 1.8 0 0 0 0.1 0.1 0.1q0.1 0 0.3 0c0.4-0.3 0.7-0.3 1-0.3 0.5 0 0.9-0.5 1.3-0.7q0.1 0 0.1-0.2c-0.1-0.1-0.2-0.3-0.2-0.4-0.1-0.2 0-0.3 0.2-0.4 0.2-0.1 0.2 0.1 0.2 0.2q0.1 0 0.1 0.1c0.4-1.1 1.3-2.3 1.5-3.5q0.4 0.1 0.6 0.1 0.1 0 0.2 0 0 0 0.1 0c0.1 0 0.2-0.1 0.2-0.1 0.2-0.2 0.3-0.3 0.4-0.1 0 0.1-0.1 0.1-0.2 0.3q-0.1 0.1-0.2 0.3 0-0.1 0 0-0.1 0.1-0.2 0.2c-0.3 0.9-0.9 1.9-1 2.8 0 0-0.2 0.2 0 0.3 0.4 0.2 0.6 0.4-0.4 0.6-0.1 0-0.2 0.2-0.2 0.3 0.2 1.1-0.8 2.3-1.3 3.5-0.1 0.2-0.1 0.3-0.1 0.4 0.2 0 0.4 0 0.6-0.3q0.2-0.2 0.5-0.1c-0.3 0.6-0.5 1.1-0.9 1.7-0.3 0.5-0.4 1-0.6 1.5 0.1 0.3-0.3 0.6-0.4 1q0.2-0.2 0.4-0.5c0.1-0.2 0.2-0.2 0.4-0.2q0.1-0.2 0.2-0.3c0.1-0.1 0.1-0.3 0.3-0.4 0-0.2 0-0.3 0-0.4 0.1-0.1 0.2-0.3 0.3-0.3 0.2 0 0.1 0.2 0.1 0.3-0.1 0.3-0.4 0.6-0.5 0.8 0 0.2 0.1 0.4-0.2 0.6-0.2 0.3-0.3 0.6-0.3 0.8 0 0.8-0.6 1.6-1.1 2.4q-0.1 0.2-0.2 0.5-0.1 0.1-0.1 0.3 0 0.1 0.1 0.1c0.1 0.1 0.1 0.3-0.1 0.4 0 0.1-0.1 0.2-0.2 0.3q-0.1 0.2-0.1 0.4 0 0 0.1 0.2c0.2 0.1 0.5 0 0.4 0.3-0.3 0.6-0.5 1.3-1 1.8-0.3 0.5-1 0.8-0.8 1.3 0 0.2-0.1 0.3-0.3 0.4-0.1 0-0.2-0.1-0.2-0.2q0.1-0.3 0.1-0.6c-0.1 0-0.2 0-0.2 0q-1.6 2.3-2.5 4.5 0 0.1 0 0.2c0.2 0.1 0.1 0.1-0.1 0.2 0 0.1-0.2 0.3 0.1 0.4 0.2-0.2 0.3-0.4 0.5-0.6 0.2-0.4 0.6-0.9 0.4-1.3-0.1-0.1 0.3-0.3 0.4-0.6 0.1-0.1 0.1-0.3 0.3-0.3 0.2 0 0.1 0.2 0 0.3 0.3 0.1 0.6 0 0.4 0.5-0.3 0.6-0.5 1.2-0.9 1.7-0.3 0.6-0.7 0.6-1.1 0.7-0.3 0.4-0.5 0.6-0.6 0.2q-0.1-0.1-0.2-0.1-0.1 0.2-0.2 0.4c-0.1 0.1-0.1 0.1-0.2 0.2-0.2 0.6-1 1.1-1 1.8q0.1 0 0.2 0c0.2 0.2 0.1 0.2-0.1 0.2q-0.1 0.1-0.2 0c-0.1 0.1-0.2 0.2-0.2 0.4 0.1 0 0.1 0.1 0 0.2-0.1 0-0.1 0.1-0.1 0.2 0.6-0.5 0.6-0.5 0.7-0.1 0 0.4-0.4 0.6-0.6 0.8-0.3 0.6 0 1.1-0.6 1.7 0 1.4-1.4 2.9-1.8 4.3-0.1 0 0 0.1-0.1 0.2 0.6-0.1 0.8-0.5 1-0.8 0-0.2 0-0.3 0.2-0.5 0-0.2 0.1-0.5 0.3-0.8 0-0.1-0.1-0.2 0.2-0.3 0.1-0.1 0.1-0.1 0.2-0.2 0.1-0.2 0.3-0.3 0.4-0.2 0 0.1 0 0.2-0.1 0.2q-0.1 0.3-0.3 0.5-0.1 0.2-0.2 0.4c0.1 0 0.1 0.1 0 0.2 0.2 0.1 0.1 0.3-0.1 0.5-0.5 1-1.1 2.1-1.6 3.2-0.4 0.9-1 1.8-1.3 2.8 0 0.3-0.2 0.7-0.5 1-0.1 0.1-0.2 0.3-0.3 0.3-0.1 0 0-0.2 0.1-0.4q0.1-0.4 0.2-0.9c0-0.1 0-0.3 0-0.4q-0.1-0.1-0.1-0.2-0.1 0-0.3 0c-0.5 1.2-1.2 2.5-1.7 3.7-0.3 0.9-1 1.9-1.5 2.9-0.7 1.4-1.4 2.8-2.3 4.2-0.8 1.2-1.4 2.5-2.3 3.7q-0.4 0.4-0.6 0.9c-0.4 1.2-1.3 2.4-1.7 3.7-0.1 0.6-0.6 1.3-1 2-1 1.4-1.7 3-2.5 4.5q-0.3 0.3-0.4 0.6c-0.1 0.3 0.1 0.2 0.3 0.1q0.2-0.3 0.4-0.6-0.1 0-0.2 0c0.1-0.1 0.2-0.3 0.3-0.4 0.1-0.3 0.3-0.5 0.7-0.7 0.1 0.2-0.2 0.5-0.4 0.7q-0.1 0.3-0.2 0.5c0 0.2-0.2 0.3-0.4 0.5q0.1 0.2 0 0.3c-4.2 6.8-8 13.7-12.5 20.6-1.3 2-2.4 4-3.6 6.1q-0.1 0-0.1 0.1c-0.1 0-0.3 0.1-0.2 0.2 0 0.1 0 0.1 0 0.1-1.7 3.1-3.4 6.1-5.4 9-2.8 4.3-5.5 8.5-8.6 12.6-2.4 3.3-5.3 6.5-6.8 10-0.1 0.2-0.2 0.4-0.4 0.6-0.5 0.6-1.4 1-2.5 1.5-3 1.1-6.6 1.6-10.5 1.8-2.6 0.2-5.1 0.1-7.5-0.8-1.3-0.5-2.9-0.8-4.2-1.3-3.5-1.1-6.6-2.4-8.3-4.4-0.8-0.9-1.6-1.8-2.5-2.7-1.3-1.2-2-2.4-2.3-3.7q6.5-11 13-22.1c1-1.1 2.1-2.1 2.7-3.3 0.9-1.8 2.5-3.4 4-5 0.1 0 0.1 0 0.1 0 0.2-0.2 0.3-0.4 0.5-0.5 0.1-0.2 0.2-0.2 0.2-0.3 0.1-0.1 0.1-0.1 0.1-0.1 1.8-2.2 3.1-4.4 4.7-6.5q2.8-4 5.1-8c1.2-2.1 2.6-4.2 3.9-6.2 1.3-2 2-4.2 3.2-6.2 1.2-2 2.4-4 3.2-6.1 0.6-1.3 2-2.5 1.7-4-0.1-0.1 0-0.2 0.1-0.3 2.1-2.1 3.1-4.5 4.2-6.9 1-1.8 2.2-3.7 3.4-5.5 0.7-1.2 3.6-1.9 2.1-3.6 1-1.7 1.5-3.5 3.2-5l-0.1-0.1c0.1-0.2 0-0.5 0.2-0.6 0.7-0.7 1-1.3 1.1-2 0.1-0.7 0.4-1.6 1.9-1.9q0.4-0.1 0.8-0.2c0.4-0.1 0.6-0.3 0.3-0.5-0.1-0.2-0.2-0.2-0.4-0.3-0.6-0.4-0.4-0.6-0.3-0.9 0.7-1.3 1.2-2.6 2.9-3.6q0.3-0.1 0.4-0.2 0.3-0.4 0.5-0.8c0.1-0.1 0.2-0.3 0.1-0.3-0.2-0.5 0.2-0.9 0.6-1.4-0.1-0.2-0.1-0.4 0.2-0.6l0.3-0.4c0-0.5 0.5-0.9 0.8-1.3 0.4-0.4 0.7-0.8 0.8-1.3 0-0.2 0.1-0.3 0.3-0.5 0.7-0.6 0.7-1.2 0.8-1.7-0.1-0.6 0.6-1.1 0.7-1.7 0-0.1 0.3-0.2 0.5-0.2 0.7-1.3 1-2.6 2-3.9 0.5-0.7 0.9-1.5 1.3-2.3 1-1.9 2.2-3.7 3.1-5.6 0.7-1.8 2-3.6 2.4-5.4q0.2-0.3 0.4-0.6l-0.3-0.1q-0.2 0.2-0.3 0.2c0-0.1 0-0.1 0.1-0.2 0.1-0.5 0.5-0.2 0.6-0.4 0.7-0.7 1-1.4 1.4-2.2 0.7-1.3 1.2-2.7 1.9-4 0.1-0.3 0.2-0.4 0-0.5 0-0.1-0.2 0-0.2 0q0-0.5 0.5-0.5c0.8-0.4 1.5-0.9 1.9-1.6q0.1-0.2 0.2-0.4c0-0.2 0.1-0.4 0.3-0.7 0.2-0.2 0.3-0.4 0.3-0.6 0-0.2 0.1-0.5 0.4-0.7 0.7-0.7 0.6-1.3 0.5-1.9 0.4-0.6 0.4-1.2 0.8-1.8-0.1-0.4-0.7-0.5-0.2-1.1 0-0.2-0.2-0.4 0.1-0.7 0-0.1 0.2-0.2 0.3-0.2 0.3-0.1 0.1 0.2 0 0.2 0 0.2-0.1 0.3 0.1 0.3 0.5-0.1 1-0.5 1 0.2 0 0.3 0.6 0.1 0.7 0 0.7-0.5 1.3-0.5 2-0.7 0.1-0.1 0.3-0.1 0.3 0 0 0.1 0 0.2-0.1 0.3-0.4 0.3-0.6 0.8-0.9 1.1-0.4-0.1-0.4-0.4-0.6-0.6-0.9 0.5-1 0.7-1 1.4 0 0.3-0.3 0.7-0.3 1 0.1 0.1 0.2 0.1 0.2 0.3q0.2-0.2 0.4-0.3c0.2-0.1 0.4-0.4 0.6-0.4 0.3 0.2-0.1 0.4-0.2 0.6 0 0.1 0 0.3 0.1 0.3-0.1 0.2-0.1 0.3-0.1 0.4q0.2-0.2 0.3-0.3c0.2 0 0.4 0.1 0.2 0.3-0.1 0.2 0.1 0.2 0.3 0.2q-0.1 0.2-0.3 0.4 0.1 0.1 0.2 0.3l0.3-0.1c0.2-0.3 0.4-0.5 0.5-0.7l-0.3-0.1c0-0.3 0.3-0.6 0.6-0.9 0.4-0.4 0.8-0.9 1.1-1.3-0.1-0.2-0.1-0.4-0.3-0.5-0.4-0.3-0.3-0.4 0.3-0.7 0.3-0.1 0.5-0.2 0.8-0.4 0.3-0.2 0.2-0.4 0.3-0.6-0.1-0.1-0.2-0.2-0.2-0.4-0.1-0.2-0.2-0.3-0.2-0.4 0-0.1 0.3-0.4 0.3-0.3 0.2 0.2 0.8 0.1 0.5 0.7 0.1 0.1 0.4 0.1 0.2 0.3-0.1 0.4-0.6 0.5-0.7 0.8-0.1 0.2-0.3 0.4-0.2 0.5 0.2 0.5 0 0.9-0.5 1.3-0.4 0.4-0.3 0.7-0.5 1 0.1 0.3-0.2 0.6-0.3 0.9q0.1 0.3 0.5 0.2c0.4-0.6 0.9-1.2 1.2-1.8 0.2-0.6 0.7-0.9 1.3-0.9 0.4 0 0.7-0.1 0.9-0.5 0.2-0.2 0.3-0.5 0.6-0.4 0.1 0.2 0.5 0.1 0.4 0.4-0.1 0.5 0.1 0.5 0.5 0.1 0.4-0.4 0.4-0.8 0.6-1.3 0.4-0.6 0.8-1.2 1-1.9 0.1-0.2 0.2-0.5 0.1-0.7 0.3-0.3 0.5-0.7 0.6-1.1l0.3-0.4q0.2-0.3 0.4-0.6c0.1 0.1 0 0.3 0.1 0.3 0.1 0 0.2-0.2 0.3-0.3 0.1-0.2 0.2-0.3 0.2-0.5 0-0.2 0.2-0.3 0.2-0.4zm-12.7 10.9c0.4-0.2 0.9-0.3 1.2-0.7-0.4-0.2-0.6-0.5-0.2-1-0.3 0-0.4 0.4-0.7 0.5 0 0.4-0.6 0.9-0.3 1.2zm5.1-0.3c-0.1 0-0.2-0.2-0.3-0.5q-0.1-0.1-0.2 0c-0.2 0.2-0.3 0.4-0.2 0.5 0.2 0.4-0.4 0.8-0.3 1.1 0.1 0.2 0.7-0.1 0.7 0.4 0 0.3 0.4 0.2 0.7 0 0.4-0.2 0.2-0.3 0.2-0.5 0-0.4 0.2-0.5 0.5-0.4 0.2 0.1 0.3 0.2 0.5-0.1 0.4-0.4 0.9-1 0.6-1.4-0.3-0.1-0.6 0-0.9 0q-0.3 0.3-0.7 0.5c-0.3 0.2-0.5 0.4-0.6 0.4zm-2.3 0.1q-0.1 0-0.1 0c-0.1 0-0.2 0.1-0.3 0.2-0.2 0.2-0.3 0.7-0.8 0.4 0-0.1 0-0.2 0-0.2q-0.1-0.2 0-0.2c-0.1-0.1-0.1-0.1-0.1-0.1q-0.1 0-0.3 0c-0.5 0.5-1 1-1.7 1.2 0 0-0.1 0.1-0.1 0.1-0.1 0.2-0.1 0.3-0.2 0.4-0.2 0.2-0.3 0.2-0.3 0-0.2 0-0.3 0-0.5 0.1-0.6 0.4-1.9 1.8-2.3 2.5q0.1 0 0.2-0.1c0.1-0.1 0.3-0.3 0.5-0.2 0.1 0 0 0.2 0 0.3 0.5 0 0.9-0.3 1-0.8 0.1-0.6 0.6-0.8 1.2-0.9q-0.1 0.3-0.2 0.6c0.1 0.2-0.2 0.6 0.1 0.9 0.1 0 0.2-0.1 0.3-0.2 0.2-0.1 0.3-0.3 0.6-0.3q0.1 0.1 0 0.2c-0.1 0.3-0.4 0.3-0.6 0.4-0.2 0.2-0.5 0.3-0.7 0.5q0 0.1-0.1 0.2c-0.4 0-0.6 0-0.7-0.3-0.5 0.5-0.1 0.6 0 0.9 0 0.6-0.3 1.1-1 1.7-0.4 0.3-3 4.9-4.5 7.8 0 0 0 0 0 0-0.7 1.3-1.1 2.2-1 2.2l0.1 0.1c0 0.2 0.1 0.4 0.4 0.1 0.4-0.5 1.6-2.1 4.3-6.2q0.1 0 0.1-0.1c0-0.1 0.1-0.1 0.1-0.2 0.7-1.2 3.1-5.2 3.3-5.5 0-0.1 0.1-0.2 0.2-0.3 0.2 0 0.1 0.1 0.1 0.2-0.1 0.2-0.2 0.4-0.2 0.6 0.8 0.1 1.3-0.2 1.6-0.9 0.1-0.2 0.2-0.5 0.2-0.7 0-0.4 0.5-1 0.6-1.5 0.1-0.3 0.4-0.5 0.6-0.8 0.2-0.2 0.2-0.4-0.1-0.4-0.5-0.2-0.5-0.2 0-0.6 0.4-0.4 0.9-0.6 1.2-1.1 0-0.3-0.2-0.3-0.5-0.2-0.2 0.1-0.3 0.2-0.4 0.2zm16.8 3.1q-0.1 0-0.1 0-0.1 0-0.2 0c-0.1 0.3-0.3 0.5-0.5 0.7-0.1 0-0.2 0.1-0.3 0.2-0.1 0.1-0.2 0.2-0.2 0.4-0.1 0.1-0.1 0.2-0.1 0.3-0.1 0.2 0 0.3 0.1 0.4 0.1 0.1 0 0.4 0.3 0.3 0.4-0.2 0.2-0.4 0.3-0.6-0.1-0.1-0.2-0.1-0.3-0.1q0.1-0.1 0.2-0.2 0 0 0.1 0 0 0 0.1 0l0.2 0.1c0.1-0.1 0.2-0.2 0.3-0.3 0-0.1-0.1-0.1-0.1-0.1 0-0.1 0.1-0.2 0.2-0.4 0 0-0.1 0-0.1-0.1 0 0 0.1-0.1 0.2-0.3q-0.1 0-0.1-0.1c0-0.1 0-0.1 0.1-0.2q-0.1 0-0.1 0zm-10.8 1.1c0.2 0 0.4-0.1 0.5-0.3 0.2-0.2 0.2-0.4-0.1-0.5-0.1 0-0.3 0.1-0.4 0.3-0.2 0.2-0.3 0.5 0 0.5zm-4.8 1.8c0.3-0.2 0.5-0.4 0.8-0.4 0.2-0.4 0.7-0.7 0.5-1.1-1 0.5-1 0.5-1.2 1.3-0.1 0.1-0.1 0.2-0.1 0.2zm-0.2 3.3c-0.3 0-0.6 0-0.2-0.4q0.1-0.4 0.2-0.7c-0.3 0-0.4 0.2-0.5 0.4-0.1 0.4-0.3 0.7-0.3 1q0 0.2 0 0.3c-0.1 0.2-0.2 0.1-0.3 0.1q-0.1-0.1-0.1-0.2c-0.1-0.1-0.2-0.2-0.3-0.2q-0.3 0.2-0.4 0.5c0 0.1 0 0.3 0 0.4l0.3 0.1c0.3-0.2 0.7-0.1 0.4 0.2-0.5 0.5-0.3 0.8-0.4 1.1h0.6v0.1c-0.1 0.1-0.2 0.4-0.4 0.5-0.6 0.1-0.7 0.7-1 1-0.3 0.6-0.5 1.2-1 1.8 0 0.1 0 0.2-0.1 0.2-0.1-0.3-0.1-0.7-0.1-0.9-0.3 0.1-0.3 0.3-0.5 0.5-0.3 0.6-0.7 1.2-0.9 1.8-0.4 1.1-0.9 2.1-1.8 3.2-0.1 0.1-0.2 0.2-0.2 0.3 0.1 0.9-0.5 1.8-0.8 2.6-0.2 0.4-0.5 0.8-0.7 1.2-0.4 0.2-0.6 0.1-0.4-0.2 0.3-0.6 0.6-1.2 0.6-1.8q-0.1 0-0.2 0.1-0.2 0.1-0.3 0.2-0.3 0.4-0.5 0.8c-0.2 0.5-0.5 0.9-0.8 1.3q-0.4 0.2-0.3 0.5-0.2 0.3-0.3 0.7c-0.5 0.7-1.1 1.4-1.2 2.1 0.1 0.2 0.4 0.1 0.6 0.1 0.2-0.1 0.4-0.3 0.5-0.5q0-0.1 0-0.3c-0.2-0.2 0-0.5 0.3-0.7 0-0.3 0.3-0.6 0.2-0.9 0.2-0.3 0.5-0.6 0.6-0.8 0.2 0 0.3 0.3 0.7-0.1 0.1 0 0.2 0 0.3 0.1-0.4 0.9-0.7 1.8-1.5 2.7q-0.2 0.3-0.4 0.7c0.1 0.1 0 0.2-0.1 0.4 0.2 0.2-0.1 0.3-0.3 0.4q-0.1 0.2-0.2 0.3 0.1 0.1 0 0.3 0 0.2-0.2 0.5c-0.4 0.7-0.8 1.3-1.2 2-0.2 0.4-0.3 0.9-1 1-0.3 0-0.2 0.3-0.3 0.5-0.1 0.3 0.1 0.1 0.3 0.1 0.5-0.1 0.6 0.3 0.9 0.5 0.3 0.1-0.2 0.5-0.2 0.7 0.1 0.1 0.1 0.2 0.1 0.3-0.3 0.2-0.6 0.3-0.4 0.6q0.1 0.1 0.1 0.2c-0.2 0.2-0.3 0.4-0.4 0.6-0.1 0-0.2 0.1-0.2 0.2 0.1 0.1 0.1 0.1 0 0.3q0.2 0 0.4 0c0.2-0.2 0.3-0.4 0.2-0.6 0.3-0.4 0.6-0.8 0.6-1.2 0.2-0.1 0.2-0.2 0.1-0.3 0.6-0.4 0.8-1.1 1.2-1.6-0.1-0.2 0.2-0.4 0.3-0.7 0.1-0.3 0.5-0.7 0.3-1q0.5-0.6 0.9-1.3c0-0.4 0.3-0.8 0.7-1.2 0-0.2 0.1-0.3 0-0.5q0.2-0.2 0.5-0.5c0.2-0.4 0.3-0.8 0.8-1.2 0.1 0.5-0.2 0.9-0.6 1.3-0.2 0.3-0.3 0.6-0.5 0.9 0 0.2-0.1 0.4-0.4 0.8-0.4 1.1-0.8 2.2-1.6 3.2-0.1 0.4-0.3 0.7-0.4 1-0.7 1.3-1.5 2.6-2 3.8-0.6 1.5-1.4 3-2.1 4.5 0 0.2-0.1 0.5-0.2 0.8 0.1 0 0.2 0.1 0.3 0.1 0.3-0.4 0.6-0.9 1-1.4 1.1-1.7 1.7-3.5 3-5.2 0.2-0.5 0.4-0.9 0.3-1.3 0-0.2 0-0.2 0.2-0.4 0.9-1.3 1.5-2.6 2.2-3.9 0.5-0.9 1.1-1.8 1.6-2.7 0.3-0.7 0.6-1.4 1.1-1.9 0.6-0.7 0.8-1.3 0.9-2-0.1-0.2-0.3-0.3-0.7-0.1q-0.1 0-0.2 0c-0.1 0.1-0.2 0.3-0.3 0.4-0.2 0.4-0.4 0.3-0.4 0.1-0.5 0.3-0.7 0.2-0.6-0.2 0.1-0.3 0.4-0.5 0.6-0.8 0.1-0.3 0.3-0.6 0.6-0.8 0-0.2 0-0.4 0.1-0.6 0.9-1.1 1.4-2.3 1.8-3.4q0.2-0.6 0.6-1.3c0.3-0.5 0.6-1.1 0.9-1.7 0.2-0.6 0.4-1.2 1.1-1.8-0.2-0.1 0-0.4-0.2-0.5 0.4-0.7 0.9-1.4 1.4-2.1 0.1-0.5 0.5-1.1 0.9-1.6 0.1 0.1 0.1 0.1 0.1 0.2q0.2-0.1 0.5-0.2c0.4-0.5 0.7-1.1 0.7-1.6 0 0-0.1-0.1-0.1-0.1q0.1-0.1 0.3-0.3c0.1-0.1 0.2-0.4-0.1-0.4-0.1 0-0.1 0-0.2 0.1 0.3-0.3 0.5-0.6 0.7-0.9q0.1-0.2 0.2-0.4-0.3-0.3-0.5-0.7c0-0.2-0.3-0.2-0.5-0.1q-0.3 0.1-0.5 0.4 0 0.2-0.1 0.4c-0.2 0.3-0.3 0.5-0.4 0.8 0.1 0.2 0 0.3-0.2 0.5-0.2 0.2-0.2 0.4-0.3 0.6-0.1 0.3-0.2 0.6-0.3 0.8zm3.3 0.5q0 0 0 0-0.2 0.3-0.6 0.4c-0.6 0.2-0.8 0.5-0.5 0.8 0.2 0.2-0.1 0.5-0.3 0.8q0.1 0.1-0.1 0.4c0 0.3 0.1 0.4 0.4 0.1 0.5-0.4 1-0.8 1.3-1.4-0.1-0.3 0.2-0.8 0.2-1.1-0.1-0.1-0.2-0.1-0.2 0q-0.1 0-0.2 0zm-4.4 5.1c0.2-0.2 0.4-0.4 0.5-0.4 0.9-0.3 1.1-0.9 1.2-1.4 0.1-0.4 0-0.6 0.4-1q0.1-0.1 0.3-0.3c-0.5-0.5-0.5-0.5-0.4-1-0.3 0-0.3 0.3-0.5 0.4 0 0.1 0 0.2-0.1 0.2-0.4 1-0.8 1.9-1.4 2.8 0 0.2 0 0.4 0 0.7zm-11.4 0.8c0.7-0.1 0.6-0.7 0.8-1-0.1-0.3-0.3-0.1-0.5 0.1-0.2 0.3-0.3 0.6-0.3 0.9zm22 3.4c0.2-0.1 0.5-0.2 0.7-0.3q0.2-0.2 0.3-0.4-0.1-0.1 0-0.2c0.2-0.5 0.3-0.8 0.5-1.2-0.2-0.1-0.2-0.2-0.3-0.2-0.6 0.7-1 1.4-1.3 2.1 0.1 0 0.1 0 0.1 0.2zm0.5 9.9q-0.1 0-0.3-0.1c0 0.1-0.1 0.2-0.2 0.3-0.1 0.2-0.4 0.5-0.3 0.7-1.2 1.5-1.8 3.1-2.5 4.6-0.2 0.3-0.3 0.5-0.4 0.8-0.6 0.7-1.2 1.5-1.2 2.2-0.1 0.2-0.1 0.3-0.2 0.4-0.2 0.2-0.3 0.4-0.1 0.4 0.3 0.1 0.5-0.2 0.6-0.4 0-0.1 0-0.2 0-0.3 0.4-0.5 0.7-1.1 1-1.6 0.2-0.5 0.1-0.9 0.5-1.2q0.3-0.2 0.4-0.4 0.8-1.6 1.7-3.2c0.1-0.3 0.2-0.6 0.3-0.9 0.1 0 0.1 0 0.2 0 0 0 0.1-0.1 0.2-0.1 0 0.3-0.1 0.6-0.3 1 0 0.3-0.4 0.7-0.3 1q0.2 0.1 0.5 0c0.3-0.5 0.5-1 0.7-1.4q0-0.2 0-0.3c0.2-0.5 0.4-0.6 0.7-0.3 0 0 0.2 0 0.3 0 0.6-0.8 0.1-1.2 0.2-1.8-0.2-0.1-0.2-0.3-0.5-0.3-0.1 0.1-0.2 0.2-0.4 0.4 0 0-0.1 0.1-0.1 0.2q-0.3 0.3-0.5 0.3zm-24.1 3.2q0.1 0 0.2 0c0.1-0.4 0.4-0.7 0.7-1.1 0.2-0.2 0.2-0.4 0.3-0.6-0.3-0.2-0.5-0.2-0.8 0.2-0.3 0.5-0.7 1.1-0.5 1.5q0 0.1 0.1 0zm16.6 1.5c0.3-0.3 0.4-0.5 0.4-0.8q-0.1 0-0.2-0.1c-0.2 0.3-0.6 0.6-0.5 0.9q0 0 0.1 0 0.1 0 0.2 0zm-2.2 4q0.1-0.1 0.2-0.3c0-0.3 0.1-0.4 0.4-0.4 0.5-0.2 0.6-0.5 0.6-0.8 0.2-0.4 0.4-0.9 0.2-1.3-0.1 0.1-0.1 0-0.4 0.1-0.3 0.3-0.1 0.5-0.3 0.8q-0.2 0.3-0.4 0.6 0.2 0.3-0.2 0.6-0.1 0.2-0.3 0.5c0.1 0 0.2 0.1 0.2 0.2zm10.3-1.4q0 0 0 0c0 0.1-0.1 0.1-0.2 0.3-0.3 0.2-0.8 0.2-0.6 0.6 0.4-0.4 0.8-0.2 1.1-0.2 0.1-0.1 0.1-0.1 0.1-0.2 0-0.2 0.1-0.5-0.2-0.5q-0.1 0-0.1 0 0 0-0.1 0zm-34.2 0.7l0.5-0.7c-1.2 0.1-1.2 0.2-0.5 0.7zm33.9 1.7q0 0 0.1 0l0.2-0.4c-0.7 0-0.1-0.6 0-0.9-0.3-0.2-0.5 0.2-0.8 0.3-0.2 0.3-0.7 0.5-0.4 0.8 0.3 0.1 0.6 0.2 0.9 0.2zm-11.5 2c0.4-0.8 1-1.6 1.2-2.5-0.1 0-0.2-0.1-0.3-0.1-0.6 0.9-1.4 1.7-1.3 2.5zm-14-1.1c0.2 0 0.4-0.1 0.6-0.1 0.2-0.4 0.5-0.8 0.5-1.1-0.1 0-0.2-0.1-0.3-0.1-0.3 0.4-0.6 0.8-0.9 1.3q0 0 0.1 0zm24 1.2q0.1-0.3 0.3-0.5 0-0.4 0.4-0.7c0-0.1 0.1-0.2 0.2-0.3-0.1-0.1-0.1-0.2 0-0.4-0.1-0.1-0.2-0.1-0.3-0.2-0.6 0.7-0.7 1.4-1 2.1 0.1 0 0.2 0 0.4 0zm0.9 0.7q0.1 0 0.3 0 0.1-0.1 0.3-0.1c0-0.1 0-0.1 0.1-0.2q-0.1-0.2-0.2-0.3c-0.2-0.1-0.4-0.2-0.6 0.2-0.1 0.2-0.2 0.4 0.1 0.4zm-13.4 2.3q-0.1 0-0.1 0c-0.1 0.1-0.1 0.1-0.2 0.3q0.1 0.1 0 0.3c0.1 0 0.1 0.1 0 0.2-0.8 0.7-0.8 0.7-0.4 1.3 0.4-0.3 0.5-0.8 0.8-1.2-0.1-0.4 0.4-0.8 0.6-1.2q-0.1 0-0.2 0-0.1 0.1-0.3 0.1-0.1 0.2-0.2 0.2zm-31.7 9.6c0.1-0.1 0.2-0.2 0.3-0.3 0.6-0.6 1-1.2 1.2-1.8 0.1-0.3-0.1-0.4-0.4-0.5-0.1 0-0.3-0.1-0.5-0.1 0.1 0.8-1.1 1.5-0.6 2.7zm-34.3 58.2c0.5-0.2 0.8-0.5 0.8-0.9-0.1-0.1-0.2-0.1-0.2 0-0.4 0.2-0.5 0.5-0.6 0.9zm-1.3 0.5c0.3-0.4 0.5-0.8 0.6-1.3-0.2 0.4-0.8 0.7-0.8 1.2q0.1 0 0.2 0.1z"/>
			</g>
			<g id="V">
				<path id="Fill-4628" fill-rule="evenodd" class="s3" d="m183.4 67c0.2 0 0.6 0 0.5 0.2q0.2 0.1 0 0.4c0.3 0.4-0.4 0.8-1 1.3q-0.2 1-0.5 2c0.5 0.2 0.9-0.3 1.3-0.4 0.1-0.1 0.3-0.1 0.5-0.1 0.6-0.3 1.1-0.6 1.8-0.6-0.2 0.2 0.1 0.4-0.1 0.7 0.1 0 0 0.1-0.1 0.1-0.1 0.2-0.3 0.2-0.5 0.2-0.2 0.1-0.5 0.2-0.7 0.2q-0.3 0.1-0.5 0.2c-0.3 0.3-0.9 0.2-1.2 0.5 0.5 0 0.5 0.1 0.3 0.4-0.2 0.3-0.9 0.3-1.1 0.6 0.5 0.2 0.4 0.7 0.7 1.1 0.2 0.1 0 0.5-0.6 0.7-0.7 0.3-0.4-0.1-0.6-0.2-0.1-0.1-0.3-0.1-0.5-0.2-1.3 0.8-0.5 1.4-1 2.2-0.1 0.1 0 0.2-0.2 0.3 0.5 0.1 0.8 0.3 1.6-0.1 0.2-0.2 0.5-0.2 0.8-0.4-0.1 0.3-0.3 0.6 0.4 0.4-0.4 0.2-0.7 0.2-1 0.2-0.7 0.3-1.3 0.4-1.9 0.5-0.1 0.1-0.2 0.3-0.6 0.3-0.5 0.3-0.5 0.6-0.7 0.9 0.3 0.1 0.3 0.2 0.3 0.4 0.3 0.1 0.1 0.3-0.1 0.4q-0.2 0.1-0.5 0.3c0 0.1-0.2 0.3 0 0.4-0.2 0.3-0.5 0.5-0.5 0.7-0.2 0.2-0.2 0.3 0 0.4q0.1 0.1 0.3 0c0.1 0 0.2 0 0.4-0.1q0.1 0 0.3 0c0.1-0.2 0.5-0.5 0.2-0.6 0.1-0.2 0.1-0.3-0.1-0.4 0.2-0.2 0.2-0.3 0.1-0.5 0.3-0.3 0.6-0.7 0.8-1 0.2-0.2 0.3-0.4 0.4-0.5-0.1-0.1-0.2-0.2 0.2-0.2 0.2 0.1-0.2 0.4-0.3 0.6 0.1 0.2 0.2 0.3 0.3 0.4-0.5 0.5-0.5 1-0.6 1.5-0.2 0.4 0.4 0.3 0.8 0.3 0.4-0.4 0.7-0.8 0.5-1.1-0.2-0.2-0.2-0.4 0.3-0.7 0.2-0.3-0.1-0.7 1-0.8 0.4-0.5 0.8-1 0.4-1.4 0.2-0.2-0.1-0.4 0.3-0.7 1.3-0.4 1.7-1 2-1.6 0.2-0.2 0.2-0.5 0.4-0.7 0.2-0.3-0.5-0.3-0.1-0.7 0.2-0.2-0.1-0.2-0.3-0.3-0.4 0.2-0.8 0.2-0.6-0.1 0.1-0.2 0.4-0.5 0.7-0.5 0.5 0 0 0.4 0 0.6 0.4-0.1 0.8-0.1 1.1 0 0.2 0 0.5-0.2 0.6-0.1 0.1 0.2 0.3 0.3 0.8 0.1 0.8-0.2 1 0 0.5 0.4-0.4 0.3-0.7 0.6-0.9 1 0.2 0 0.4 0 0.7 0 0-0.1 0.2-0.2 0.3-0.2 0.2 0 0.3 0 0.3 0.2 0.6 0.4 0.5 0.7-0.5 1.1-0.3 0.2-0.4 0-0.4-0.1-0.1-0.2-0.3-0.3-0.4-0.5q-0.2 0.1-0.4 0c-1 0.5-1.4 1.1-1.9 1.7 0.2 0.2 0.2 0.4 0.1 0.6 0.2 0.2 1.1 0.1 0.2 0.7-1.1 0.7-1.1 1.5-1.2 2.2-0.2 0.7-0.3 1.5-0.6 2.3q-0.1 0.1-0.3 0.2v-0.2c-0.6 0.1-1.1-0.1-1.7 0.2-0.6 0.3-1 0.7-1 1.1 0.1 0.3 0.7-0.1 1-0.2 0 0.1 0.1 0.1 0.2 0.1 0.6 0.2-0.2 0.8 0.2 1.1 0.2 0.1-0.2 0.2-0.4 0.3-0.8 0-0.9 0.3-0.7 0.5 0.2 0.3-0.2 0.8 0.4 0.9 0.1 0 0.2 0 0.4 0q0.2-0.3 0.4-0.5c0.1-0.1 0.1-0.3 0.4-0.3 0.2 0 0.2 0.1 0.3 0.2-0.2 0.2-0.5 0.4-0.7 0.6 0 0 0 0.1 0.1 0.2 0.1 0 0.1 0 0.1 0.1 0.1 0.1 0.1 0.1 0.3 0 0.4-0.4 0.8-0.9 1.3-1.4 0.7-0.1 1.4-0.2 1.7-0.8 0.1-0.2 0.3-0.3 0.6-0.3 0.4-0.1 0.6 0.1 0.5 0.2-0.3 0.6-0.3 0.9 0.6 1 0.4 0-0.2 0.5 0 0.8 0.7-0.2 0.7-0.6 1-0.8q0.2-0.2 0.3-0.5 0.1 0 0.1-0.2c0.1-0.1 0.2-0.3 0.5-0.3 0.3 0 0.2 0.2 0.1 0.4l-0.1 0.1q-0.1 0.2-0.2 0.4c0.4 0.1-0.3 0.5 0.1 0.7 0.2-0.3 0.4-0.6 0.6-0.8q0.1-0.2 0.2-0.4c-0.1-0.1-0.1-0.3 0.1-0.5 0.2-0.3 0.8-0.8 0.8-1.2 0-0.1 0.2-0.2 0.4-0.3 0.8-0.2 0.6-0.5 0.9-0.7-0.1-0.3 0.2-0.7 0.5-1v-0.5c0.1-0.2 0.6-0.6-0.3-0.5-0.8 0-0.7-0.3-0.6-0.6q0-0.1 0.2-0.3c0.5-0.5 0.8-0.9 1.7-1.3 0.8-0.5 0.2-1 1.1-1.4 0.4-0.3 0.5-0.8 1.3-0.7 0.3 0.1 0.2-0.2 0.4-0.2 0.4-0.2 0.5-0.8 1.3-0.7 0 0 0.3-0.2 0.4-0.3-0.1-0.3 0.5-0.7 0.4-1.1 0-0.2 0-0.4 0.3-0.6 0.2-0.5 0.5-1 0.8-1.5 0.5-0.7 0.9-1.5 2-2.2 0.1-0.1 0.1-0.2 0.2-0.3-0.1 0-0.2-0.1 0.1-0.2 0.2-0.1 0.4 0 0.3 0.1 0.2 0.1 0.2 0.2 0.1 0.3 0 0.1 0.1 0.2-0.1 0.5-0.4 0.4-0.5 0.2-0.6 0.1-0.6 0.2-0.9 0.4-0.7 0.7 0.2 0 0.3-0.1 0.5-0.1 0.1 0 0.2-0.1 0.3-0.1 0.3 0.1 0.3 0.1-0.3 0.4q-0.2 0.1-0.5 0.3c-0.1 0-0.1 0.1-0.2 0.1-0.1 0.1-0.2 0.2-0.3 0.2-0.6 0.5-0.4 1-0.9 1.5 0.1 0.3-0.1 0.6-0.2 1q-0.5 1.4-0.6 2.6c0 0.6-0.3 1.3 0.1 1.8 0.1 0.1 0.2 0.2 0.4 0.3 0.2-0.2 0.9-0.4 1.2-0.5-0.1 0-0.1 0.1-0.1 0.1-0.1 0.1-0.2 0.2-0.2 0.2q-0.1 0.1-0.2 0.1c0.1 0.1 0.1 0.1 0.2 0.2q0 0-0.1 0.2c0 0.1 0.1 0.1 0.2 0.1-0.1 0.1-0.2 0.1-0.2 0.3h0.2q0.1 0.1 0.2 0.1c0 0 0 0.1 0 0.2q0.1 0 0.2 0-0.1 0.1-0.1 0.2h-0.3q-0.1 0.1-0.2 0.2-0.2 0-0.3 0c-0.1 0.1-0.1 0.1-0.1 0.2q0 0.1 0 0.2c0 0.2-0.4 0.5-0.2 0.8-0.1 0.1-0.1 0.2 0.1 0.2q0 0.1 0 0.2c-0.2 0.2 0 0.2 0.2 0.2 0 0.4-0.4 1.3-0.7 1-1.6 1.2-1.6 1.3-1.4 2.3 0 0.1 0.1 0.2 0 0.3-0.9 0.8-1 1.5-1.1 2.3-0.1 0.2-0.2 0.4-0.3 0.7-0.1 0.3-0.8 0.6-0.4 0.9 0.2 0.1 0.4 0.3 1 0 0.6-0.2 0.5 0.1 0.4 0.3 0.6 0.3 0.5 0.8-0.3 1.4 0 0.1-0.1 0.2-0.1 0.3 0.2 0.4-0.2 0.9-0.5 1.3 0.1 0.3-0.3 0.7-0.5 1 0 0.1-0.1 0.2-0.2 0.2 0.1 0.5-0.2 0.9-0.5 1.4-0.7 0-0.3-0.3-0.2-0.6-0.4-0.3-0.9 0.2-1.3 0.3-0.4 0.2-0.7 0.4-0.8 0.6-0.1 0.5-0.1 1-0.8 1.6 0.2 1.1-1.1 2.3-1.6 3.4-0.5 1.2-0.9 2.3-1.2 3.5-0.2 0.6-0.8 1.3-0.9 1.9 0.2 0 0.5-0.1 0.7-0.1 0.9-0.7 1.1-1.4 1.4-2.2 0.4-0.9 0.8-1.9 2.3-2.9 0.2-0.3 0.4-0.7 1-0.9q0.3-0.4 0.6-0.7c0.2-0.3-0.1-0.5 0.4-0.8 0.4 0.2 0.1 0.5-0.1 0.8 0 0 0 0.1-0.1 0.1 0.1 0.1 0.1 0.3-0.1 0.4 0.3 0.1 0.5-0.2 0.8-0.2q0.5-0.7 1-1.4c-1-0.1 0.1-0.6 0.2-0.9-0.1-0.1-0.3-0.2-0.4-0.3-0.9 0.1-0.5-0.2-0.2-0.5q-0.4-0.2 0.2-0.6c0.1-0.1 0.2-0.2 0.2-0.2 0.4-0.4 0.4-0.8 0.9-1.2 0.3-0.6 0.4-1.3 0.9-1.9-0.1-0.2-0.1-0.3 0-0.5 0.1 0 0.2 0 0.3 0 0-0.1 0.1-0.1 0.2-0.1 0.1-0.2 0.3-0.4 0.5-0.4q-0.1 0.1-0.1 0.2c0.1 0 0.1 0 0.2 0.1q-0.1 0-0.1 0.1c0 0-0.1 0.1-0.2 0.2-0.1 0.1-0.2 0.2-0.3 0.3 0.2 0.4-0.4 0.8-0.5 1.1-0.1 0.3 0 0.4 0.4 0.3 0.8-0.1 1.7-0.3 2.5-0.5 0.5-0.1 1.2-0.3 1-0.7-0.5-0.1-0.2-0.3 0.1-0.5 0.2-0.4 0.9-0.3 1.4-0.6-0.1-0.1-0.2-0.1-0.2-0.2 0-0.1-0.1-0.2-0.1-0.3 0.3-0.1 0.6-0.2 0.8-0.3h0.1c0.2 0 0.3 0.2 0.1 0.4 0.1 0.1 0.1 0.1 0.2 0.2 0.1 0.1 0.1 0.1 0 0.3q-0.1-0.2-0.2-0.3c0-0.1 0-0.1-0.2-0.1-0.2 0.1-0.2 0.2-0.3 0.4-0.1 0.1-0.2 0.2-0.3 0.3q0.1 0.3-0.3 0.6c-0.3 0.3-0.1 0.3 0.2 0.3 0.1-0.1 0.1-0.1 0.1-0.1q0.3 0 0.5 0c-0.1 0-0.2 0.1-0.3 0.2 0.2 0.1 0.5 0.1 0 0.3-0.2 0.2-0.3 0.4-0.5 0.7-0.5 0.4-0.6 0.1-0.7 0-0.4 0.1-0.6 0.3-0.6 0.5-0.1 0.6-0.8 0.6-1.5 0.7-0.6 1-1.2 2-1.4 2.9 0.2 0.1 0.5 0 0.7-0.1 0.3-0.4-0.2-0.7 0.9-1.2-0.3 0.4-0.4 0.8-0.5 1.2q0 0.2 0 0.3c-0.1 0.3-0.1 0.5-0.6 0.6-0.5 0.1-0.1-0.3-0.4-0.3-0.6 0.3-0.7 0.7-1 1.1 0.2 0.1 0 0.3 0 0.4-0.5 0.4-0.6 0.8-0.5 1 0.2 0.5 0 1.1-0.5 1.8 0.1 0 0.2 0 0.2 0 0.2 0 0.3 0 0.5-0.1 0.5-0.3 1.1-0.3 1.6-0.4 0.8-0.1 1.3-0.5 1.9-0.8 0 0 0-0.1 0.1-0.2-0.2-0.1-0.5-0.2-0.6-0.4 0-0.1 0-0.2 0.3-0.3 0.2-0.1 0.3 0 0.4 0.1 0 0 0.2 0 0.2 0.1 0.3-1.1 1.4-2.3 1.3-3.4 0.4 0 0.7 0 1 0 0.2 0 0.3-0.1 0.5-0.1 0.3 0 0.5-0.5 0.9-0.3 0 0.1-0.2 0.2-0.2 0.3q-0.2 0.1-0.2 0.3-0.1 0 0 0c-0.1 0.1-0.2 0.2-0.3 0.2-0.3 1-0.9 1.9-0.7 2.7 0 0.1-0.4 0.2 0 0.3 0.7 0.1 1.2 0.3-0.4 0.6-0.1 0.1-0.2 0.2-0.2 0.3 0.6 1-0.6 2.3-1 3.4-0.1 0.1 0 0.3 0 0.4 0.3 0 0.6-0.1 0.8-0.4q0.3-0.2 0.7-0.2c-0.3 0.6-0.4 1.1-0.8 1.7-0.3 0.5-0.4 1-0.6 1.4 0.3 0.3-0.2 0.7-0.2 1.1q0.3-0.3 0.5-0.6c0-0.2 0.2-0.2 0.4-0.3q0.1-0.1 0.3-0.2c0.1-0.2 0.2-0.3 0.3-0.5 0-0.1 0-0.2 0-0.3 0-0.1 0.2-0.3 0.4-0.3 0.2 0 0.2 0.1 0.1 0.3 0 0.2-0.3 0.5-0.4 0.7 0 0.2 0.2 0.4-0.1 0.6-0.4 0.3-0.4 0.6-0.3 0.8 0.3 0.7-0.5 1.5-1.1 2.3q-0.1 0.3-0.1 0.5c-0.1 0.1-0.1 0.2-0.1 0.3q0.1 0.1 0.2 0.1c0.3 0 0.2 0.2 0 0.4-0.1 0-0.1 0.1-0.2 0.2q-0.1 0.2-0.1 0.4c0 0 0.1 0.1 0.2 0.2q0.2 0 0.3 0c0.3 0 0.5 0 0.5 0.2-0.3 0.6-0.5 1.2-1.1 1.8-0.3 0.5-1.4 0.9-0.8 1.3 0 0.2-0.2 0.3-0.4 0.4-0.1 0-0.3-0.1-0.3-0.1q-0.1-0.3-0.1-0.6c-0.2 0-0.3 0-0.3 0.1q-1.8 2.2-2.7 4.5c0 0 0.1 0 0.2 0.1 0.2 0 0.2 0-0.2 0.2 0 0.1-0.2 0.3 0.3 0.3 0.2-0.2 0.4-0.4 0.5-0.6 0.3-0.4 0.8-0.9 0.4-1.2-0.2-0.1 0.3-0.4 0.5-0.6 0-0.2 0-0.4 0.4-0.4 0.2 0 0 0.2 0 0.3 0.4 0 1-0.1 0.7 0.4-0.3 0.6-0.3 1.1-0.9 1.7-0.2 0.5-0.8 0.6-1.5 0.8-0.3 0.4-0.6 0.6-0.9 0.3q-0.1-0.1-0.3-0.1-0.1 0.2-0.3 0.4c-0.1 0.1-0.1 0.1-0.2 0.2-0.2 0.6-1.2 1.2-1 1.8q0.1 0 0.3 0c0.3 0.1 0.2 0.2-0.1 0.2q-0.2 0.1-0.3 0c-0.1 0.1-0.2 0.3-0.3 0.4 0.2 0 0.2 0.1 0.1 0.2-0.1 0-0.1 0.1-0.1 0.2 0.8-0.6 0.8-0.6 1.1-0.2 0.1 0.3-0.5 0.5-0.7 0.8-0.3 0.6 0.4 1-0.5 1.7 0.6 1.2-1.3 2.8-1.6 4.1 0 0.1 0.1 0.1 0.1 0.2 0.8-0.2 1.1-0.6 1.3-0.9-0.1-0.1-0.1-0.2 0.1-0.5-0.1-0.2 0.1-0.4 0.3-0.7-0.1-0.1-0.3-0.2 0.2-0.4 0.1 0 0.2-0.1 0.3-0.2 0.2-0.1 0.3-0.3 0.5-0.2 0.1 0 0.1 0.2 0 0.2q-0.2 0.3-0.4 0.5-0.1 0.2-0.1 0.4c0.1 0 0.1 0.1 0 0.2 0.3 0.1 0.2 0.3-0.1 0.4-0.4 1.1-1 2.1-1.4 3.2-0.4 0.8-1.1 1.8-1.2 2.7 0 0.3-0.3 0.7-0.6 1-0.1 0.1-0.2 0.3-0.4 0.3-0.1 0 0-0.1 0.1-0.3q0-0.5 0.1-0.9c-0.1-0.1-0.2-0.3-0.2-0.4q-0.2 0-0.3-0.1c-0.1 0-0.3 0-0.4 0-0.4 1.2-1.2 2.5-1.6 3.7-0.3 0.9-1 1.9-1.5 2.8-0.8 1.4-1.5 2.8-2.4 4.2-0.9 1.3-1.6 2.5-2.7 3.7q-0.4 0.5-0.5 0.9c-0.4 1.2-1.4 2.5-1.6 3.7 0 0.5-0.5 1.2-1 1.9-1.1 1.5-1.9 3-2.7 4.5q-0.4 0.3-0.4 0.6c-0.1 0.3 0.2 0.2 0.5 0.1q0.2-0.3 0.4-0.6 0-0.1-0.2-0.1c0.1-0.1 0.2-0.2 0.3-0.3 0.2-0.3 0.2-0.6 0.9-0.8 0.2 0.2-0.1 0.5-0.4 0.7q0 0.3-0.1 0.5c0 0.2-0.4 0.4-0.6 0.6 0.1 0 0.2 0.1 0.2 0.1-4.7 6.9-8.7 13.8-13.7 20.7-1.5 2.1-2.7 4.1-4 6.1 0 0.1-0.1 0.1-0.1 0.1-0.2 0.1-0.4 0.2-0.3 0.3 0 0 0.1 0 0.1 0.1-1.8 3-3.6 6-5.9 9-3.3 4.3-6.2 8.6-9.9 12.8-2.9 3.4-6.6 6.8-7.9 10.2-0.1 0.2-0.2 0.4-0.5 0.6-0.6 0.6-1.8 1.2-3.5 1.7-4.5 1.5-10 2.6-16.3 3.5-4.1 0.6-8.2 0.9-12.5 0.5-2.2-0.2-4.8-0.2-7.2-0.4-5.9-0.5-11.3-1.1-14.7-2.6q-1.4-0.6-2.7-1.1 0.7-1.1 1.4-2.2c1.1-0.8 1.8-2 2-3.4 1.3-2.5 2.5-5 4-7.4 0.8-0.7 1.3-1.5 1.6-2.5q0.5-0.7 1.1-1.4c0.4-0.5 0.7-1 1-1.5 1.2-1 1.9-2.5 1.9-4.1 0.8-1 1.3-2.3 1.3-3.7 1.1-0.8 1.9-1.9 2.1-3.2 2.2-1.1 3.5-3.3 3.8-5.5q0.2-0.2 0.3-0.3c3.4-1.3 4.5-4.4 3.9-7.2 2.8-5.2 4.9-10.8 8.7-15.4 1-1.2 1.4-2.5 1.5-3.7 0.2-0.4 0.3-0.8 0.6-1.1 1.3-2.1 2.5-4.1 3.3-6.1 0.4-1.3 2.4-2.6 1.3-3.9 0-0.1 0.1-0.2 0.2-0.2 2.7-2.3 3.5-4.6 4.7-7 0.9-1.8 2.4-3.7 3.6-5.5 0.8-1.2 5.3-2.4 2.2-3.6 1.1-1.7 1.5-3.4 3.7-5.1h-0.1c0-0.2-0.2-0.5 0.1-0.7 0.9-0.6 1.2-1.3 1.2-2-0.2-0.6 0.1-1.4 2.3-1.9q0.7-0.2 1.2-0.3c0.8-0.2 1-0.4 0.4-0.6-0.2-0.1-0.4-0.1-0.7-0.2-1.1-0.2-0.9-0.5-0.8-0.8 0.7-1.2 1.1-2.5 3.5-3.7q0.4-0.1 0.7-0.3c0.2-0.2 0.3-0.4 0.5-0.7 0.1-0.1 0.2-0.3 0.1-0.3-0.6-0.4 0-0.9 0.4-1.4-0.1-0.1-0.2-0.3 0.2-0.5q0.2-0.3 0.3-0.5c0-0.4 0.6-0.8 1-1.2 0.5-0.5 0.8-0.9 0.9-1.4 0-0.1 0-0.3 0.3-0.5 0.9-0.6 0.8-1.1 0.7-1.6-0.3-0.5 0.6-1.1 0.6-1.7 0-0.1 0.5-0.2 0.8-0.3 0.7-1.2 0.8-2.5 1.9-3.8 0.7-0.8 1-1.5 1.4-2.3 1.1-1.8 2.4-3.7 3.2-5.6 0.7-1.8 2.1-3.6 2.3-5.3q0.2-0.2 0.4-0.6h-0.6c-0.1 0.1-0.2 0.2-0.4 0.2q0.1-0.1 0.2-0.2c0-0.4 0.7-0.2 0.9-0.4 0.9-0.7 1.2-1.5 1.5-2.2 0.7-1.3 1.2-2.7 1.8-4 0.1-0.2 0.2-0.4-0.1-0.5-0.1 0-0.4 0.1-0.4 0.1q0-0.4 0.7-0.5c1.1-0.5 2.1-1.1 2.5-1.8q0.1-0.2 0.2-0.3c0-0.2 0.1-0.5 0.3-0.7 0.2-0.2 0.3-0.4 0.3-0.7-0.1-0.2 0-0.4 0.4-0.6 0.9-0.8 0.5-1.3 0.2-1.9 0.4-0.6 0.2-1.1 0.8-1.7-0.3-0.3-1.3-0.3-0.7-1 0-0.2-0.4-0.3-0.2-0.6 0.2-0.1 0.3-0.3 0.6-0.3 0.3 0 0.1 0.2 0 0.3 0 0.1 0 0.2 0.2 0.2 0.8-0.2 1.6-0.6 1.8 0 0.1 0.3 0.9 0 1.1-0.1 1-0.6 2-0.7 2.9-1 0.3-0.1 0.5-0.1 0.6 0 0.1 0 0.1 0.2-0.1 0.3-0.6 0.3-0.8 0.8-1.2 1.1-0.6 0-0.7-0.3-1.1-0.5-1.2 0.7-1.4 0.9-1.1 1.5 0.1 0.3-0.3 0.7-0.1 1 0.1 0 0.2 0 0.4 0.2 0.1-0.1 0.3-0.2 0.5-0.4 0.2-0.1 0.4-0.4 0.8-0.4 0.5 0.1 0 0.4-0.1 0.6 0 0.1 0.1 0.2 0.2 0.3 0 0.1 0 0.2 0 0.3q0.2-0.2 0.4-0.3c0.3 0 0.6 0 0.4 0.2-0.1 0.2 0.3 0.1 0.5 0.2q-0.1 0.2-0.2 0.3 0 0.1 0.2 0.3 0.3-0.1 0.5-0.2 0.5-0.3 0.6-0.7h-0.5c0-0.3 0.2-0.6 0.7-0.9 0.6-0.4 1-0.9 1.3-1.4-0.1-0.1-0.3-0.3-0.5-0.3-0.7-0.3-0.7-0.4 0.2-0.7 0.4-0.2 0.8-0.4 1.2-0.6 0.4-0.2 0.2-0.4 0.3-0.6-0.2-0.1-0.5-0.1-0.5-0.3-0.1-0.1-0.4-0.2-0.5-0.3 0-0.1 0.4-0.4 0.4-0.3 0.4 0.2 1.4-0.1 1.2 0.5 0.1 0.1 0.6 0 0.4 0.3-0.2 0.3-0.9 0.5-1 0.8 0 0.2-0.3 0.4-0.1 0.5 0.4 0.4 0.2 0.8-0.4 1.2-0.5 0.4-0.4 0.7-0.5 1 0.3 0.3-0.1 0.6-0.3 0.9q0.3 0.2 0.9 0.1c0.4-0.7 1.1-1.2 1.3-1.8 0.3-0.6 1-1 2-1.1 0.5-0.1 0.9-0.2 1.3-0.6 0.1-0.1 0.3-0.5 0.8-0.4 0.2 0.1 0.8 0 0.7 0.3q0.1 0.6 0.9-0.1c0.6-0.4 0.4-0.8 0.6-1.2 0.4-0.6 0.8-1.3 1-1.9 0-0.2 0.1-0.5-0.1-0.6 0.4-0.4 0.6-0.8 0.6-1.1q0.2-0.3 0.4-0.5c0.1-0.1 0.3-0.3 0.4-0.5 0.2 0 0.1 0.2 0.2 0.2 0.3 0 0.4-0.2 0.5-0.3 0.1-0.2 0.1-0.3 0.2-0.5-0.2-0.1 0.1-0.3 0.1-0.4zm-8.9 10.8c-0.2 0-0.3-0.1-0.6-0.3q-0.1-0.1-0.5 0c-0.1 0.2-0.2 0.4 0 0.5 0.3 0.3-0.4 0.7-0.2 1 0.1 0.1 0.4 0.1 0.6 0 0.3 0 0.6 0 0.7 0.2 0.1 0.3 0.6 0.2 1.1 0 0.6-0.3 0.2-0.4 0.1-0.6-0.1-0.3 0.3-0.5 0.7-0.4 0.4 0.1 0.6 0.1 0.8-0.2 0.5-0.4 1.2-1 0.5-1.3-0.4 0-0.9 0-1.3 0.1-0.4 0.2-0.7 0.4-1 0.6-0.5 0.3-0.7 0.4-0.9 0.4zm-8.1 1.2c0.5-0.3 1.3-0.4 1.6-0.9-0.7-0.1-1.1-0.3-0.5-0.9-0.5 0.1-0.7 0.5-1.1 0.6 0.2 0.4-0.6 0.9 0 1.2zm3.1 0.1q-0.2 0-0.4-0.1c0 0-0.1-0.1-0.2-0.1 0-0.1 0-0.2 0-0.2-0.1-0.1-0.1-0.1-0.1-0.1-0.2 0-0.4 0.1-0.6 0.1-0.6 0.5-1.2 1.1-2.3 1.3 0 0.1-0.1 0.1-0.2 0.2q0 0.2-0.2 0.3c-0.2 0.3-0.4 0.2-0.4 0.1-0.3 0.1-0.6 0.1-0.7 0.2-0.9 0.4-2.5 1.9-3 2.6q0.2 0 0.3-0.1c0.2-0.1 0.3-0.3 0.6-0.3 0.3 0 0.2 0.2 0.2 0.3 0.8-0.1 1.3-0.4 1.3-0.9 0.1-0.5 0.8-0.8 1.7-1-0.1 0.2-0.1 0.4-0.2 0.5 0.3 0.2-0.1 0.7 0.5 0.9 0.2-0.1 0.3-0.2 0.4-0.2 0.3-0.2 0.5-0.4 0.9-0.4 0.1 0 0.2 0.1 0.2 0.2-0.2 0.2-0.6 0.3-1 0.4-0.3 0.2-0.6 0.4-0.9 0.5q-0.1 0.2-0.1 0.3c-0.6 0.1-1 0-1.2-0.2-0.7 0.5 0 0.6 0.3 0.8 0.1 0.5-0.3 1.1-1.2 1.7-0.4 0.3-3.2 5-4.7 7.8 0 0-0.1 0-0.1 0-0.6 1.3-1 2.2-0.9 2.2l0.2 0.1c0.1 0.1 0.3 0.3 0.6-0.1 0.6-0.5 2.1-2.1 5.2-6.2q0-0.1 0-0.2c0 0 0.1-0.1 0.2-0.2 0.7-1.2 3.3-5.2 3.5-5.5 0.1-0.1 0.2-0.2 0.3-0.2 0.3-0.1 0.2 0 0.2 0.1-0.1 0.2-0.2 0.4-0.2 0.6 1.3-0.1 2.1-0.4 2.4-1.1 0.1-0.2 0.1-0.5 0.1-0.7-0.3-0.4 0.4-1 0.5-1.4 0-0.3 0.4-0.6 0.7-0.8 0.2-0.2 0.1-0.4-0.4-0.4-0.8-0.1-0.7-0.1-0.2-0.5 0.6-0.4 1.4-0.7 1.7-1.2-0.1-0.3-0.4-0.3-0.9-0.1-0.3 0.1-0.5 0.2-0.8 0.2-0.1 0.1-0.3 0.1-0.4 0.2-0.2 0.3-0.3 0.6-0.7 0.6zm5.1 4.5c0.4-0.3 0.8-0.5 1.1-0.6 0.2-0.3 1-0.7 0.6-1-1.5 0.5-1.5 0.5-1.6 1.4q-0.1 0.1-0.1 0.2zm0.4 3c-0.3 0-0.4-0.1-0.1-0.4q0.1-0.4 0.1-0.6c-0.4 0-0.6 0.2-0.6 0.4-0.1 0.3-0.4 0.7-0.2 1 0 0.1 0.1 0.1 0 0.2 0 0.2-0.2 0.2-0.4 0.1-0.1 0-0.2-0.1-0.3-0.2-0.1 0-0.3-0.1-0.5 0q-0.5 0.2-0.4 0.4c0 0.1 0 0.3 0 0.4h0.5c0.6-0.1 1.1-0.1 0.7 0.2-0.5 0.5-0.1 0.7-0.2 1.1l1-0.1q-0.2 0.3-0.4 0.6c-1 0.1-1.1 0.7-1.3 1-0.3 0.6-0.6 1.2-1.1 1.8 0 0.1 0 0.2-0.1 0.2-0.4-0.3-0.3-0.6-0.5-0.8-0.4 0.1-0.4 0.3-0.7 0.5-0.3 0.6-0.7 1.3-0.8 1.8-0.3 1.1-0.8 2.1-1.9 3.2-0.1 0.1-0.2 0.3-0.2 0.3 0.4 0.8-0.2 1.7-0.6 2.5-0.1 0.4-0.5 0.8-0.7 1.2-0.5 0.3-0.9 0.2-0.7-0.1 0.3-0.6 0.5-1.2 0.4-1.8q-0.2 0.1-0.3 0.2c-0.2 0-0.4 0.1-0.5 0.3-0.1 0.2-0.3 0.5-0.5 0.7-0.1 0.5-0.5 0.9-0.8 1.3q-0.7 0.2-0.3 0.5c-0.2 0.2-0.3 0.5-0.3 0.7-0.6 0.7-1.4 1.4-1.2 2.1 0.2 0.1 0.5 0 0.9 0 0.3-0.1 0.5-0.3 0.7-0.5-0.1-0.1-0.1-0.2-0.1-0.3-0.5-0.2-0.1-0.4 0.2-0.7-0.1-0.3 0.3-0.6 0-0.9 0.2-0.2 0.6-0.5 0.7-0.8 0.3 0 0.6 0.2 1.1-0.1 0.2-0.1 0.4-0.1 0.5 0-0.3 0.9-0.4 1.7-1.5 2.7q-0.2 0.3-0.5 0.6c0.2 0.1 0.2 0.3 0 0.4 0.4 0.2-0.1 0.3-0.3 0.5-0.1 0.1-0.1 0.2-0.2 0.3q0.2 0.1 0 0.2c0.1 0.1 0.1 0.3 0 0.5-0.5 0.7-1 1.3-1.4 2-0.2 0.4-0.2 0.8-1.3 1.1-0.4 0-0.3 0.3-0.4 0.4-0.1 0.3 0.3 0.2 0.6 0.1 0.7-0.1 1 0.2 1.6 0.3 0.5 0-0.2 0.5-0.1 0.6 0.1 0.1 0.2 0.2 0.2 0.3-0.5 0.2-0.8 0.4-0.4 0.6q0.1 0.1 0.2 0.2c-0.2 0.2-0.4 0.4-0.5 0.6-0.1 0.1-0.2 0.2-0.2 0.2 0.1 0.1 0.2 0.1 0.1 0.3q0.3 0 0.6-0.1c0.3-0.2 0.3-0.4 0.2-0.6 0.4-0.4 0.7-0.7 0.6-1.1 0.2-0.2 0.1-0.2 0-0.3 0.8-0.5 1-1.1 1.5-1.6-0.2-0.2 0.1-0.5 0.2-0.7 0.1-0.4 0.6-0.7 0.2-1q0.5-0.6 1-1.3c-0.2-0.4 0.3-0.8 0.7-1.2 0.1-0.2 0.1-0.3 0-0.4q0.2-0.3 0.5-0.6c0.3-0.4 0.3-0.8 1-1.2 0.3 0.4 0 0.8-0.5 1.2-0.2 0.3-0.4 0.7-0.6 1 0.1 0.2-0.1 0.4-0.4 0.7-0.3 1.1-0.6 2.1-1.6 3.2 0 0.4-0.2 0.6-0.4 1-0.6 1.2-1.5 2.5-1.9 3.7-0.5 1.5-1.3 3-2 4.4l-0.1 0.8c0.2 0 0.4 0 0.6 0 0.3-0.4 0.6-0.9 1.1-1.4 1.2-1.7 1.7-3.5 3.2-5.2 0.3-0.5 0.5-0.9 0.2-1.2-0.1-0.2-0.2-0.2 0-0.4 1.2-1.3 1.7-2.6 2.4-3.9 0.6-0.9 1.3-1.8 1.7-2.7 0.3-0.7 0.6-1.3 1.2-1.9 0.7-0.8 0.9-1.3 0.9-1.9-0.3-0.2-0.6-0.3-1.3 0q-0.1 0-0.2 0c-0.1 0.1-0.2 0.3-0.4 0.4-0.2 0.4-0.5 0.4-0.7 0.2-0.6 0.3-0.9 0.3-0.9-0.1 0-0.3 0.5-0.5 0.7-0.9 0.1-0.2 0.3-0.5 0.7-0.8 0-0.2-0.1-0.4 0-0.5 1-1.2 1.4-2.3 1.8-3.4q0.2-0.6 0.6-1.2c0.3-0.6 0.7-1.2 0.9-1.7 0.2-0.6 0.2-1.2 1.2-1.8-0.3-0.1-0.2-0.4-0.4-0.5 0.3-0.6 1-1.4 1.5-2 0-0.6 0.5-1.1 1-1.7 0.1 0.1 0.1 0.1 0.2 0.2 0.2-0.1 0.5-0.2 0.7-0.2 0.5-0.6 0.8-1.2 0.7-1.7q-0.1 0-0.2 0 0.1-0.1 0.3-0.3c0.2-0.2 0.2-0.4-0.2-0.3-0.1 0-0.2 0-0.3 0 0.3-0.3 0.6-0.6 0.8-0.9 0.1-0.1 0.1-0.2 0.2-0.3-0.3-0.2-0.7-0.4-0.9-0.7-0.2-0.1-0.6 0-0.9 0.1q-0.5 0.1-0.7 0.4 0 0.2-0.1 0.4c-0.2 0.3-0.3 0.5-0.3 0.8 0.1 0.1 0 0.3-0.2 0.5-0.3 0.2-0.3 0.4-0.3 0.6-0.1 0.3-0.1 0.5-0.2 0.8q-0.2 0-0.4 0zm4.4 2.5q0.2 0 0.5-0.2c0.6-0.5 1.3-1 1.6-1.5-0.2-0.3 0-0.7 0-1.1-0.2-0.1-0.5 0.1-0.6 0.1q-0.3 0.4-0.9 0.5c-0.9 0.2-1.2 0.5-0.6 0.8 0.4 0.2 0 0.4-0.2 0.7 0.2 0.1 0.2 0.3 0 0.4 0 0.2 0.1 0.3 0.2 0.3zm-4.1 2.6c0.2-0.2 0.5-0.3 0.7-0.4 1.4-0.4 1.5-0.9 1.5-1.5 0.1-0.3-0.2-0.5 0.4-0.9 0.1-0.1 0.2-0.2 0.3-0.4-1-0.3-1-0.3-0.9-0.8-0.5 0.1-0.5 0.3-0.7 0.5 0 0.1 0 0.1-0.1 0.2-0.4 0.9-0.6 1.8-1.4 2.8 0.1 0.2 0.1 0.3 0.2 0.5zm18.4 2c0.4-0.1 0.8-0.2 1.2-0.3q0.1-0.2 0.2-0.5-0.1 0 0.1-0.1c0-0.5 0.2-0.8 0.3-1.2q-0.3-0.1-0.6-0.1c-0.6 0.7-1.2 1.4-1.3 2.1 0.1 0 0.2 0 0.1 0.1zm-36.6 0.7c1.1-0.2 0.8-0.7 1.1-1-0.2-0.3-0.5-0.1-0.8 0.2-0.2 0.3-0.3 0.5-0.3 0.8zm40.5 8.2q-0.2 0-0.4-0.1c-0.1 0.1-0.2 0.2-0.3 0.3-0.1 0.3-0.4 0.6-0.2 0.8-1.5 1.5-1.9 3-2.6 4.5-0.2 0.3-0.3 0.5-0.5 0.8-0.6 0.7-1.3 1.5-1.1 2.2-0.1 0.1-0.1 0.2-0.3 0.4-0.2 0.2-0.3 0.4 0.1 0.4 0.4 0 0.6-0.3 0.7-0.5 0-0.1-0.1-0.2-0.1-0.3 0.5-0.5 0.9-1.1 1.1-1.6 0.2-0.4 0-0.8 0.5-1.2q0.4-0.2 0.5-0.3 0.9-1.6 1.7-3.2c0.1-0.3 0.2-0.6 0.3-0.9 0.1-0.1 0.2-0.1 0.3-0.1q0.1 0 0.2-0.1c0.1 0.3 0.2 0.6-0.1 0.9 0.1 0.3-0.5 0.8-0.2 1.1q0.4 0 0.8-0.2c0.4-0.5 0.5-0.9 0.7-1.4 0 0-0.1-0.1 0-0.2 0.1-0.5 0.4-0.6 1-0.4 0.1 0 0.3 0 0.5 0 0.6-0.8-0.3-1.2-0.3-1.7-0.3-0.1-0.5-0.2-0.9-0.2-0.1 0.1-0.3 0.3-0.5 0.4 0 0.1-0.1 0.2-0.1 0.2q-0.4 0.4-0.8 0.4zm-37.9 7q0.2 0 0.3-0.1c0.2-0.3 0.4-0.7 0.9-1.1 0.2-0.2 0.2-0.4 0.2-0.6-0.4-0.1-0.8 0-1.1 0.3-0.3 0.6-0.8 1.1-0.4 1.5q0.1 0 0.1 0zm40.2 0.4c0.6-0.4 1.2-0.3 1.8-0.3 0.1-0.1 0.1-0.1 0.2-0.2-0.2-0.2-0.2-0.5-0.7-0.5-0.1 0-0.1 0.1-0.2 0.1-0.1 0-0.1 0.1-0.3 0.3-0.4 0.2-1.3 0.3-0.8 0.6zm-15.1 2.1q0.1-0.2 0.3-0.3c-0.2-0.3-0.1-0.4 0.5-0.5 0.6-0.2 0.7-0.5 0.7-0.7 0.1-0.5 0.2-1-0.2-1.3-0.1 0.1-0.2 0.1-0.5 0.2-0.4 0.3 0 0.4-0.2 0.7q-0.3 0.4-0.5 0.7 0.3 0.2-0.2 0.5-0.1 0.2-0.3 0.5c0.2 0 0.3 0.1 0.4 0.2zm15.9-0.8q0.3 0 0.7-0.1c0-0.1 0.2-0.2 0.2-0.3-1.1 0-0.4-0.5-0.4-0.9-0.5 0-0.7 0.4-1.1 0.5-0.2 0.3-0.9 0.6-0.3 0.7q0.4 0.1 0.9 0.1zm-1.9 2.2c0.2 0 0.3-0.1 0.5-0.1q0.2-0.3 0.5-0.5c-0.1-0.2 0-0.4 0.3-0.7 0.1-0.1 0.1-0.2 0.2-0.3-0.1-0.1-0.1-0.2 0-0.4-0.2 0-0.4 0-0.6-0.1-0.8 0.8-0.6 1.4-0.9 2.1zm-15.6 1.5c0.5-0.8 1.2-1.6 1.3-2.4-0.2 0-0.4-0.1-0.6-0.1-0.7 0.9-1.7 1.8-1.3 2.5zm-37.2 0.5l0.4-0.8c-1.9 0.3-1.7 0.4-0.4 0.8zm14.2 0.9c0.3 0 0.6-0.1 0.9-0.2 0.3-0.4 0.7-0.8 0.5-1.1-0.1 0-0.3-0.1-0.5-0.1-0.4 0.5-0.7 0.9-1.1 1.4q0.1 0 0.2 0zm19.4 3.9c0.6-0.4 0.7-0.9 1-1.3-0.3-0.3 0.3-0.8 0.6-1.1-0.1 0-0.2 0-0.3-0.1q-0.1 0.2-0.5 0.2c-0.1 0.2-0.2 0.2-0.4 0.2-0.1 0.1-0.2 0.2-0.3 0.4q0.2 0 0.1 0.2c0.2 0 0.3 0.1 0.2 0.2-1.2 0.7-1.2 0.7-0.4 1.3zm-47.6 11.9c0.1-0.1 0.2-0.2 0.3-0.3 0.9-0.7 1.3-1.2 1.5-1.8 0-0.3-0.4-0.4-0.8-0.4-0.3 0-0.6 0-0.8 0 0.3 0.7-1.4 1.6-0.2 2.5z"/>
			</g>
		</g>
	</g>
</svg>