<?xml version="1.0" encoding="UTF-8"?>
<svg width="24px" height="24px" viewBox="0 0 24 24" version="1.1" xmlns="http://www.w3.org/2000/svg" xmlns:xlink="http://www.w3.org/1999/xlink">
    <title>componente/footer-home-assistente copy</title>
    <g id="componente/footer-home-assistente-copy" stroke="none" stroke-width="1" fill="none" fill-rule="evenodd">
        <g id="icon_assistente">
            <circle id="Oval" fill="#0071CE" cx="12" cy="12" r="12"></circle>
            <circle id="Oval" stroke="#FFFFFF" stroke-width="0.5" cx="12" cy="12" r="9"></circle>
            <path d="M11.7691652,20.883371 C16.4033651,19.9142043 21,16.5241436 21,11.7124115 C21,6.90067951 16.6301678,3 11.8067303,3 C6.98329273,3 3.79757657,6.82043315 3.07312403,11.7124115 C2.34867148,16.6043899 7.13496532,21.8525378 11.7691652,20.883371 Z" id="Oval" stroke="#FFFFFF" stroke-width="0.7" style="mix-blend-mode: overlay;"></path>
            <path d="M10.2758643,14.9999211 L11.8761664,15 C12.0763134,15 12.176314,14.9373872 12.2763147,14.7497065 L13.4545455,12.5402786 L12.7465291,12.5405941 C12.53065,12.5409095 12.4332713,12.5973714 12.3302845,12.7907299 L11.747542,13.8825112 C11.6806079,14.0074214 11.579806,14.0708227 11.4463747,14.0708227 L10.704345,14.0705862 C10.5712778,14.0709016 10.4709858,14.0080522 10.4042701,13.8829843 L10.0286667,13.1785508 C9.96202391,13.0533252 9.96260658,12.9288881 10.0293223,12.8038202 L10.1526297,12.5725313 C10.2527032,12.3848506 10.2530674,12.2605713 10.1528482,12.0729694 L9.79399657,11.4 L9.07490946,12.7483834 C8.97512729,12.9360641 8.97483596,13.0617629 9.07520079,13.2493648 L9.87549748,14.7504162 C9.97557098,14.9380969 10.0757902,14.9999211 10.2758643,14.9999211 M11.2485205,9.23601845 L10.3563203,10.648714 C10.2447547,10.8253381 10.2449171,10.9431617 10.3564827,11.1197858 L11.6699364,13.2 L12.0643136,12.5748741 C12.1844049,12.3839953 12.1883024,12.2715172 12.0732453,12.0895476 L11.424557,11.061208 C11.3505047,10.9433102 11.35018,10.8244472 11.424557,10.7066978 L11.8383404,10.0518004 C11.9122303,9.93412526 12.0241207,9.87517633 12.1728749,9.87517633 L13.0103478,9.87517633 C13.1591831,9.87532481 13.2698555,9.93442223 13.3442326,10.0521716 L13.4817815,10.2699263 C13.5933471,10.4466246 13.7039383,10.5054993 13.9270696,10.5052766 L14.7272727,10.5052766 L13.925608,9.23572148 C13.8139612,9.05932015 13.7019896,8.99985151 13.478696,9.00014849 L11.6940521,9 C11.4710021,9 11.3600049,9.05939439 11.2485205,9.23601845 M15.9214334,13.4244148 L15.0799779,14.7744503 C14.9749299,14.9434707 14.8690397,14.9997163 14.6588673,15 L13.1470802,15 L13.5243188,14.3947041 C13.6293667,14.2257546 13.7341084,14.1702183 13.9445106,14.1702183 L14.2037616,14.1701474 C14.3440297,14.1701474 14.4489245,14.1146111 14.5192883,14.0021909 L14.9141369,13.3685948 C14.9842709,13.2561037 14.9843475,13.1432579 14.9141369,13.0311924 L14.5243416,12.4053274 C14.4542075,12.2927654 14.3479345,12.2362361 14.207743,12.2359524 L12.9834596,12.2355268 C12.7667025,12.2355978 12.6680095,12.1788557 12.5541565,11.9969265 L12.1818182,11.4 L14.6589438,11.4 C14.869346,11.4 14.9745471,11.4561037 15.0797482,11.6249113 L15.9208209,12.9745922 C16.0259454,13.1433289 16.0266345,13.2556781 15.9214334,13.4244148" id="Fill-1" fill="#FFFFFF"></path>
        </g>
    </g>
</svg>