<?xml version="1.0" encoding="UTF-8"?>
<svg width="48px" height="48px" viewBox="0 0 48 48" version="1.1" xmlns="http://www.w3.org/2000/svg" xmlns:xlink="http://www.w3.org/1999/xlink">
    <title>ic-associar</title>
    <g id="ic-associar" stroke="none" stroke-width="1" fill="none" fill-rule="evenodd">
        <path d="M30.2920756,8 C31.1314479,8.00557716 31.9342241,8.34437487 32.523793,8.94185747 C33.1133619,9.53934008 33.4414263,10.346562 33.4359519,11.1859341 L33.4359519,11.1859341 L33.4353833,23.92564 C32.9169817,24.0453372 32.4140015,24.2053398 31.9299208,24.4021696 L31.9307569,11.2984615 L15.5017459,11.2984615 L15.5017459,36.3428571 L26.0556544,36.3429648 C26.3927302,37.5608567 26.9544455,38.6854226 27.6933976,39.6692596 L17.1439437,39.6694505 C16.3045714,39.6638734 15.5017952,39.3250757 14.9122263,38.7275931 C14.3226574,38.1301105 13.994593,37.3228886 14.0000674,36.4835165 L14.0000674,36.4835165 L14.0000674,11.1648352 C14.0000674,9.41694497 15.4171524,8 17.1650426,8 L17.1650426,8 Z" id="Combined-Shape" fill="#0071CE" fill-rule="nonzero"></path>
        <g id="Group-4" transform="translate(27.000000, 25.000000)" stroke="#0071CE">
            <polyline id="Path-2" stroke-linecap="round" stroke-linejoin="round" points="4 7.93800297 7.03845017 11 12 6"></polyline>
            <path d="M8,15.9956815 C3.581722,15.9956815 0,12.4149262 0,7.99784076 C0,3.58075527 3.581722,0 8,0 C12.418278,0 16,3.58075527 16,7.99784076 L16,7.99784076 C15.9976196,12.4146394 12.4179891,15.995236 8,16" id="Path" fill-rule="nonzero"></path>
        </g>
    </g>
</svg>