<svg id="Camada_2" data-name="Camada 2" xmlns="http://www.w3.org/2000/svg" viewBox="0 0 100 100"><defs><style>.cls-1{fill:#3174bc;fill-rule:evenodd;}</style></defs><title>ic-calendario</title><path class="cls-1" d="M89.33,13.39H66.8V7.78a2.81,2.81,0,1,0-5.63,0v5.61H38.67V7.78a2.81,2.81,0,1,0-5.63,0v5.61H10.55A5.63,5.63,0,0,0,4.92,19V89.36A5.63,5.63,0,0,0,10.55,95H89.33A5.63,5.63,0,0,0,95,89.36V19A5.63,5.63,0,0,0,89.33,13.39Zm0,76H10.55V19H33v2.83a2.81,2.81,0,1,0,5.63,0V19H61.18v2.83a2.81,2.81,0,1,0,5.63,0V19H89.33ZM55.5,44.64h4a2,2,0,0,0,2-2v-4a2,2,0,0,0-2-2h-4a2,2,0,0,0-2,2v4A2,2,0,0,0,55.5,44.64Zm0,15.86h4a2,2,0,0,0,2-2v-4a2,2,0,0,0-2-2h-4a2,2,0,0,0-2,2v4A2,2,0,0,0,55.5,60.5ZM43.61,52.57h-4a2,2,0,0,0-2,2v4a2,2,0,0,0,2,2h4a2,2,0,0,0,2-2v-4A2,2,0,0,0,43.61,52.57Zm0-15.86h-4a2,2,0,0,0-2,2v4a2,2,0,0,0,2,2h4a2,2,0,0,0,2-2v-4A2,2,0,0,0,43.61,36.72Zm-15.86,0h-4a2,2,0,0,0-2,2v4a2,2,0,0,0,2,2h4a2,2,0,0,0,2-2v-4A2,2,0,0,0,27.75,36.72Zm0,15.86h-4a2,2,0,0,0-2,2v4a2,2,0,0,0,2,2h4a2,2,0,0,0,2-2v-4A2,2,0,0,0,27.75,52.57ZM72.4,44.64h4a2,2,0,0,0,2-2v-4a2,2,0,0,0-2-2h-4a2,2,0,0,0-2,2v4A2,2,0,0,0,72.4,44.64Zm0,15.86h4a2,2,0,0,0,2-2v-4a2,2,0,0,0-2-2h-4a2,2,0,0,0-2,2v4A2,2,0,0,0,72.4,60.5ZM55.5,76h4a2,2,0,0,0,2-2v-4a2,2,0,0,0-2-2h-4a2,2,0,0,0-2,2v4A2,2,0,0,0,55.5,76ZM43.61,68.07h-4a2,2,0,0,0-2,2v4a2,2,0,0,0,2,2h4a2,2,0,0,0,2-2v-4A2,2,0,0,0,43.61,68.07Zm-15.86,0h-4a2,2,0,0,0-2,2v4a2,2,0,0,0,2,2h4a2,2,0,0,0,2-2v-4A2,2,0,0,0,27.75,68.07ZM72.4,76h4a2,2,0,0,0,2-2v-4a2,2,0,0,0-2-2h-4a2,2,0,0,0-2,2v4A2,2,0,0,0,72.4,76Z"/></svg>